HIERARCHY
ROOT Hips
{
 OFFSET 0.000000 0.000000 0.000000
 CHANNELS 6 Xposition Yposition Zposition Yrotation Xrotation Zrotation
 JOINT Chest
 {
  OFFSET 0.000000 9.585900 0.002600
  CHANNELS 3 Yrotation Xrotation Zrotation
  JOINT Chest2
  {
   OFFSET 0.000000 9.601200 -0.005300
   CHANNELS 3 Yrotation Xrotation Zrotation
   JOINT Chest3
   {
    OFFSET 0.000000 9.561800 0.000000
    CHANNELS 3 Yrotation Xrotation Zrotation
    JOINT Chest4
    {
     OFFSET 0.000000 9.552100 0.000000
     CHANNELS 3 Yrotation Xrotation Zrotation
     JOINT Neck
     {
      OFFSET 0.000000 14.453000 0.000000
      CHANNELS 3 Yrotation Xrotation Zrotation
      JOINT Head
      {
       OFFSET 0.000000 8.936500 -0.011300
       CHANNELS 3 Yrotation Xrotation Zrotation
       End Site
       {
        OFFSET 0.000000 17.073600 -0.006000
       }
      }
     }
     JOINT RightCollar
     {
      OFFSET -2.921100 9.558500 0.000000
      CHANNELS 3 Yrotation Xrotation Zrotation
      JOINT RightShoulder
      {
       OFFSET -13.519700 0.000000 0.000000
       CHANNELS 3 Yrotation Xrotation Zrotation
       JOINT RightElbow
       {
        OFFSET 0.000000 -29.696600 0.000000
        CHANNELS 3 Yrotation Xrotation Zrotation
        JOINT RightWrist
        {
         OFFSET 0.000000 -24.004700 0.000000
         CHANNELS 3 Yrotation Xrotation Zrotation
         End Site
         {
          OFFSET 0.000000 -17.728500 0.000000
         }
        }
       }
      }
     }
     JOINT LeftCollar
     {
      OFFSET 2.921100 9.558500 0.000000
      CHANNELS 3 Yrotation Xrotation Zrotation
      JOINT LeftShoulder
      {
       OFFSET 13.519700 0.000000 0.000000
       CHANNELS 3 Yrotation Xrotation Zrotation
       JOINT LeftElbow
       {
        OFFSET 0.000000 -29.696600 0.000000
        CHANNELS 3 Yrotation Xrotation Zrotation
        JOINT LeftWrist
        {
         OFFSET 0.000000 -24.004700 0.000000
         CHANNELS 3 Yrotation Xrotation Zrotation
         End Site
         {
          OFFSET 0.000000 -17.728500 0.000000
         }
        }
       }
      }
     }
    }
   }
  }
 }
 JOINT RightHip
 {
  OFFSET -7.771700 -0.012900 -0.001300
  CHANNELS 3 Yrotation Xrotation Zrotation
  JOINT RightKnee
  {
   OFFSET 0.000000 -40.869800 0.001200
   CHANNELS 3 Yrotation Xrotation Zrotation
   JOINT RightAnkle
   {
    OFFSET 0.000000 -39.717900 0.002100
    CHANNELS 3 Yrotation Xrotation Zrotation
    JOINT RightToe
    {
     OFFSET 0.000000 -4.965400 11.033500
     CHANNELS 3 Yrotation Xrotation Zrotation
     End Site
     {
      OFFSET 0.000000 -1.423100 5.872300
     }
    }
   }
  }
 }
 JOINT LeftHip
 {
  OFFSET 7.771700 -0.012900 -0.001300
  CHANNELS 3 Yrotation Xrotation Zrotation
  JOINT LeftKnee
  {
   OFFSET 0.000000 -40.869800 0.001200
   CHANNELS 3 Yrotation Xrotation Zrotation
   JOINT LeftAnkle
   {
    OFFSET 0.000000 -39.717900 0.002100
    CHANNELS 3 Yrotation Xrotation Zrotation
    JOINT LeftToe
    {
     OFFSET 0.000000 -4.965400 11.033500
     CHANNELS 3 Yrotation Xrotation Zrotation
     End Site
     {
      OFFSET 0.000000 -1.423100 5.872300
     }
    }
   }
  }
 }
}
MOTION
Frames: 15
Frame Time: 0.008333
0.000000 85.388000 0.000000 0.000000 -5.767877 0.000000 0.000000 11.653817 0.000000 0.000000 -5.885947 0.000000 0.000000 -0.000000 0.000000 0.000000 -0.000000 0.000000 0.000000 12.528835 0.000000 0.000000 0.711642 0.000000 0.000000 -0.000000 0.000000 0.000000 0.000000 -90.000000 0.000000 -2.309062 0.000000 0.000000 2.309062 0.000000 0.000000 -0.000000 0.000000 0.000000 -0.000000 90.000000 0.000000 -2.309062 0.000000 0.000000 2.309062 0.000000 0.000000 8.520406 0.000000 0.000000 1.905762 0.000000 -0.000000 -4.658285 0.000000 0.000000 -0.000000 0.000000 0.000000 8.520406 0.000000 0.000000 1.905762 0.000000 -0.000000 -4.658285 0.000000 0.000000 -0.000000 0.000000
-237.577226 60.428784 -72.961558 157.284329 -26.863375 2.630515 2.379977 14.702633 1.388094 0.198233 1.329164 0.122847 0.307286 2.235166 0.245687 2.136672 13.108064 1.400323 -1.618752 19.246789 -0.498835 -1.601194 -5.386792 -0.159903 6.333460 1.189618 -4.493314 12.696341 -15.839571 -11.282276 44.165014 -48.888664 -27.031386 11.557731 11.674523 -25.983119 -8.190134 -5.120589 -6.628411 -6.629068 -13.853112 11.765515 -58.573911 -36.693532 40.626333 -12.223790 9.344136 11.748297 -1.164872 -42.583201 6.283191 -21.303888 68.348995 -18.847059 -0.528084 -2.610415 -3.207401 -0.079212 -0.234885 -0.019653 12.531820 -42.210690 0.863783 25.386148 64.405371 25.266035 -16.628373 -14.201700 0.667017 0.326303 0.210247 -0.004670
-237.566506 60.428323 -72.958773 157.280964 -26.880943 2.600548 2.401285 14.714592 1.408888 0.212390 1.332263 0.105068 0.343277 2.249058 0.206562 2.154758 13.123498 1.420798 -1.547404 19.251482 -0.461574 -1.533867 -5.382884 -0.136657 6.288053 1.182532 -4.438129 12.743993 -15.728422 -11.166677 44.278959 -48.967696 -27.342813 11.568073 11.686780 -25.973566 -8.180108 -5.048126 -6.608515 -6.647233 -13.882969 11.605167 -58.794713 -36.789026 41.033727 -12.175304 9.298334 12.147420 -1.231131 -42.557610 6.414515 -21.398328 68.318587 -19.016349 -0.564411 -2.606649 -3.197018 -0.048355 -0.236117 -0.003577 12.381142 -42.201447 0.901256 25.502258 64.372200 25.430697 -16.528776 -14.175877 0.608835 0.349797 0.207858 -0.014397
-237.558463 60.427157 -72.955836 157.270176 -26.896358 2.596868 2.425559 14.726152 1.406519 0.223920 1.339576 0.086373 0.351195 2.258932 0.203289 2.194488 13.147344 1.402742 -1.471812 19.241722 -0.424762 -1.461872 -5.395134 -0.114816 6.250204 1.199872 -4.388423 12.740531 -15.684482 -11.088517 44.393177 -49.065521 -27.580034 11.581804 11.704562 -25.964379 -8.166970 -4.974340 -6.588256 -6.647383 -13.908459 11.456872 -59.060866 -36.910195 41.458817 -12.132862 9.245525 12.532260 -1.236386 -42.539588 6.454438 -21.422086 68.304689 -19.074893 -0.549860 -2.600037 -3.177085 -0.070726 -0.236483 -0.007273 12.253105 -42.196703 0.906049 25.615578 64.346633 25.596112 -16.438793 -14.121161 0.550297 0.377059 0.171692 -0.033013
-237.548840 60.426058 -72.953132 157.246475 -26.923771 2.598773 2.463438 14.750958 1.387736 0.235946 1.351653 0.086141 0.359484 2.269542 0.199856 2.235368 13.173094 1.383697 -1.393956 19.217984 -0.389495 -1.387176 -5.423081 -0.095091 6.213084 1.213464 -4.337102 12.713767 -15.657880 -11.031555 44.517025 -49.174092 -27.784335 11.598809 11.728574 -25.952909 -8.152934 -4.897706 -6.566119 -6.630063 -13.933177 11.318280 -59.359755 -37.049002 41.889555 -12.098328 9.182714 12.884254 -1.229163 -42.508792 6.496115 -21.449455 68.292246 -19.141348 -0.529044 -2.600090 -3.148631 -0.102276 -0.230496 -0.011112 12.131665 -42.184928 0.911273 25.739596 64.327241 25.774497 -16.332457 -14.060650 0.464130 0.393179 0.111227 -0.049570
-237.543677 60.422036 -72.946740 157.233443 -26.925945 2.618617 2.496488 14.756903 1.348689 0.240938 1.362184 0.085178 0.367830 2.280658 0.196065 2.276332 13.200292 1.362428 -1.315657 19.181766 -0.356675 -1.311375 -5.465043 -0.078091 6.184354 1.287910 -4.292500 12.662716 -15.686983 -10.983491 44.677336 -49.293588 -28.003890 11.614631 11.758852 -25.938204 -8.135317 -4.817071 -6.541275 -6.594742 -13.957189 11.187934 -59.682515 -37.198733 42.314678 -12.079818 9.111586 13.183119 -1.209942 -42.502164 6.536549 -21.490398 68.265340 -19.263077 -0.540260 -2.637132 -3.097256 -0.118693 -0.182575 -0.012573 12.029524 -42.203585 0.879716 25.949818 64.310274 25.986173 -16.197905 -13.944110 0.499530 0.268558 0.027756 -0.130091
-237.530612 60.416891 -72.936923 157.241005 -26.936148 2.582847 2.548442 14.781147 1.336664 0.208113 1.352772 0.128026 0.390308 2.300504 0.175681 2.318874 13.227675 1.339294 -1.238965 19.136874 -0.326327 -1.236670 -5.516580 -0.063380 6.144787 1.327365 -4.240108 12.612170 -15.674125 -10.934103 44.872468 -49.420169 -28.243011 11.625726 11.803692 -25.918596 -8.114536 -4.728045 -6.515197 -6.540290 -13.981642 11.067199 -60.031300 -37.354576 42.731249 -12.074684 9.033680 13.419003 -1.245763 -42.484205 6.628571 -21.540907 68.237745 -19.355224 -0.551344 -2.646977 -3.094825 -0.126862 -0.166743 0.002095 11.874154 -42.231747 0.891533 26.061440 64.304355 26.185588 -16.105317 -13.875765 0.445212 0.285596 0.029231 -0.098687
-237.516848 60.412414 -72.929956 157.238394 -26.974703 2.558175 2.581201 14.827992 1.342096 0.199097 1.351001 0.141585 0.395128 2.306239 0.173453 2.377111 13.269546 1.296958 -1.165459 19.087723 -0.298355 -1.164879 -5.572686 -0.050460 6.096615 1.351003 -4.185192 12.560376 -15.636484 -10.882164 45.094359 -49.549458 -28.499558 11.625413 11.872444 -25.895817 -8.094548 -4.628558 -6.491258 -6.465090 -14.008078 10.959306 -60.406108 -37.516547 43.138428 -12.079567 8.954448 13.593940 -1.267244 -42.436957 6.709824 -21.577776 68.210649 -19.433635 -0.553960 -2.628197 -3.069844 -0.147808 -0.178440 -0.007194 11.788471 -42.216081 0.912948 26.068422 64.306281 26.275632 -16.107596 -13.871306 0.361498 0.337360 0.054194 -0.040031
-237.508910 60.405505 -72.921834 157.208578 -26.999454 2.577916 2.628999 14.864599 1.314153 0.206804 1.357108 0.138427 0.411878 2.325151 0.160587 2.415711 13.288037 1.283402 -1.094587 19.036668 -0.272529 -1.095494 -5.630794 -0.039280 6.046278 1.378338 -4.132462 12.506385 -15.591953 -10.829936 45.334049 -49.680989 -28.769902 11.633569 11.904982 -25.900496 -8.074874 -4.522870 -6.471775 -6.368515 -14.035631 10.866985 -60.802844 -37.691115 43.534857 -12.097205 8.882938 13.712453 -1.230035 -42.406850 6.744381 -21.623615 68.185561 -19.518211 -0.593483 -2.669790 -3.057365 -0.123931 -0.130910 -0.000775 11.761729 -42.209330 0.903248 26.167420 64.305367 26.383669 -16.101474 -13.807800 0.431455 0.237419 0.022151 -0.101787
-237.502947 60.393685 -72.906593 157.218080 -26.984437 2.576124 2.643746 14.863181 1.289544 0.239384 1.381481 0.104342 0.386509 2.307895 0.195934 2.468996 13.322712 1.252355 -1.026453 18.984323 -0.249113 -1.028513 -5.690183 -0.030012 5.993948 1.407512 -4.085813 12.452908 -15.540282 -10.775174 45.578726 -49.815980 -29.050066 11.654905 11.930358 -25.901195 -8.056086 -4.414130 -6.456002 -6.254246 -14.065010 10.788828 -61.211842 -37.880687 43.917680 -12.126413 8.819632 13.781157 -1.229677 -42.419536 6.779952 -21.668283 68.159965 -19.596512 -0.629122 -2.707645 -3.042247 -0.099809 -0.084323 0.000097 11.634083 -42.296366 0.821172 26.479405 64.306579 26.771651 -16.017384 -13.682133 0.421812 0.169896 -0.097263 -0.193400
-237.494431 60.381758 -72.892749 157.192313 -26.989659 2.581311 2.680185 14.877332 1.286393 0.249225 1.391208 0.095755 0.411209 2.332319 0.176469 2.506365 13.337326 1.237528 -0.962089 18.931772 -0.227895 -0.964972 -5.749663 -0.022095 5.943741 1.436968 -4.045594 12.399290 -15.482935 -10.717578 45.817208 -49.951989 -29.333136 11.673985 11.947766 -25.917825 -8.043148 -4.305229 -6.442882 -6.124537 -14.094409 10.721905 -61.618513 -38.082412 44.281278 -12.160843 8.762611 13.814363 -1.208465 -42.411517 6.822768 -21.701222 68.133675 -19.657550 -0.633106 -2.715785 -3.029395 -0.099121 -0.062190 -0.002907 11.589025 -42.345970 0.763140 26.650540 64.312048 27.037903 -15.961409 -13.611528 0.383971 0.098418 -0.140926 -0.199886
-237.477275 60.368440 -72.875803 157.184321 -27.002474 2.525743 2.733188 14.913488 1.326316 0.248721 1.391920 0.099691 0.428758 2.350686 0.163450 2.541289 13.349260 1.222383 -0.902401 18.880790 -0.208106 -0.906050 -5.807236 -0.014614 5.898636 1.467244 -4.011752 12.344745 -15.421906 -10.658519 46.043263 -50.086974 -29.607940 11.716144 11.914485 -25.943628 -8.034786 -4.197978 -6.432992 -5.984326 -14.120954 10.666462 -62.007643 -38.295853 44.618814 -12.191473 8.707526 13.832722 -1.248189 -42.396101 6.927997 -21.745384 68.112068 -19.711899 -0.625680 -2.718075 -3.022285 -0.103861 -0.053372 -0.017223 11.514821 -42.390813 0.773873 26.752588 64.300047 27.289614 -15.915957 -13.567232 0.283160 0.153313 -0.153293 -0.161947
-237.466335 60.353073 -72.858785 157.213133 -27.003677 2.490316 2.744167 14.941256 1.330740 0.255023 1.398829 0.096334 0.430443 2.352588 0.165564 2.582014 13.368968 1.199012 -0.848072 18.832704 -0.189204 -0.852720 -5.861434 -0.006993 5.854767 1.498840 -3.983405 12.289632 -15.358325 -10.597367 46.254541 -50.218914 -29.868442 11.732062 11.922773 -25.955941 -8.027650 -4.092667 -6.423671 -5.841527 -14.144731 10.621673 -62.365293 -38.522317 44.925074 -12.215382 8.648155 13.851843 -1.286344 -42.396746 6.978013 -21.777767 68.093637 -19.751274 -0.602428 -2.709726 -3.006199 -0.129958 -0.050895 -0.034961 11.461799 -42.439030 0.737485 26.883381 64.283492 27.533308 -15.929460 -13.510435 0.203759 0.229809 -0.193269 -0.141602
-237.459328 60.336408 -72.842186 157.157349 -26.995104 2.519049 2.818310 14.961956 1.312508 0.245871 1.386950 0.105698 0.452245 2.377631 0.149072 2.621810 13.386778 1.176546 -0.798887 18.787664 -0.171103 -0.804694 -5.912168 0.000859 5.810623 1.530492 -3.956791 12.235606 -15.293140 -10.534629 46.449252 -50.344496 -30.114093 11.742526 11.924085 -25.972742 -8.020697 -3.990992 -6.412144 -5.701476 -14.167464 10.583985 -62.681255 -38.757199 45.194788 -12.231456 8.582239 13.881098 -1.228569 -42.405992 6.996837 -21.759119 68.071571 -19.759653 -0.626839 -2.730639 -2.994078 -0.122655 -0.010827 -0.034287 11.523391 -42.486080 0.677371 26.996598 64.282818 27.710695 -15.907675 -13.478490 0.209809 0.151968 -0.191224 -0.143219
-237.451152 60.319748 -72.826607 157.151472 -26.996400 2.524129 2.835550 14.977752 1.302629 0.248812 1.389022 0.104722 0.471311 2.403387 0.132163 2.659571 13.403405 1.154404 -0.753745 18.744650 -0.154499 -0.760549 -5.960501 0.008088 5.768059 1.561031 -3.931774 12.186807 -15.227878 -10.472654 46.627099 -50.465125 -30.343750 11.753345 11.938776 -25.985633 -8.008842 -3.894646 -6.397158 -5.567634 -14.192323 10.550000 -62.950056 -38.992909 45.422295 -12.234558 8.510768 13.926940 -1.220770 -42.411238 7.009312 -21.791157 68.066462 -19.796096 -0.620494 -2.748154 -2.991035 -0.126388 0.008075 -0.040413 11.550372 -42.521543 0.615975 27.118101 64.254606 27.940965 -16.026388 -13.434375 0.158226 0.143615 -0.203227 -0.125560
